<!DOCTYPE svg PUBLIC "-//W3C//DTD SVG 1.1//EN" "http://www.w3.org/Graphics/SVG/1.1/DTD/svg11.dtd">
<svg xmlns="http://www.w3.org/2000/svg" xmlns:xlink="http://www.w3.org/1999/xlink" width="652px" height="415px" version="1.1" content="&lt;mxfile userAgent=&quot;Mozilla/5.0 (Windows NT 10.0; Win64; x64) AppleWebKit/537.36 (KHTML, like Gecko) Chrome/64.0.3282.119 Safari/537.36&quot; version=&quot;8.1.8&quot; editor=&quot;www.draw.io&quot; type=&quot;device&quot;&gt;&lt;diagram id=&quot;d91f8167-aa3d-9b97-dd9c-f7eeaefcb9b4&quot; name=&quot;Page-1&quot;&gt;7Z1Nc6M4EIZ/jY+TQgiwOSaZzcxlqqYqVbtnYhRMBVteTCbO/vpFRhDTkJgg0eTQmcMYCSTQg6TuVx8s+O32+COP9ptfMhbZwnXi44J/X7gu83xe/qdCXquQgK+qgCRPY33SW8B9+p/QgY4OfU5jcWidWEiZFem+HbiWu51YF62wKM/lS/u0R5m1c91HiegE3K+jrBv6TxoXGx3KgvAt4qdIk43OeuUuq4iHaP2U5PJ5p/NbuPzx9FdFb6M6Lf2gh00Uy5ezIP7Xgt/mUhbVr+3xVmSqbOtiq667eye2ue9c7IohF3CvuuJPlD2L+pZPN1a81oURR4eNUOc7C34THfZVgT+mRxV4Uz7BXp24PSbqXbhKtnF2dSiiXMUVuXwStzKT5dH3ndyVJ948pllWB5XFszz9qxKqikJlcyrCU6asPEqy6HDQMY9yV9xF2zRTr9bfIo+jXaSD9Xu00odnmTinP3X7WZrsyrB1WT5C3aJ+fJEX4vhuGbKGTPnGC7kVRf5anqIvCDRL/a4v9eHL2YujgzZnr0wdFulXNWnSfcNV/tDE3qEXXKYndvG1qhHqoVUxpuvyqTfFNtNlWzGq33JmXMJlfndpVqde3Y6IO9XtYuGeFZ/fU3x1WC6yqEj/tJPvK1Odw2+Zlhk37Lw2O9cBVA7yOV8LfdF5Pfo4HQ8kU1aHRBSdZE58m2cehnxJyL8G8ubC9xKyCH3Vgf7aoV42YEUf5w+aXx3UaRRVc5iWveG1jtimcayyuXnZpIW430drledL2d63mmrHalNtoWV2IaFOy+z1vGeujZY57BA7ErHLxFjYRtYcIzCr0201rUGmED2UPxL1Qz3yN+dK3VUVUybaRBLgAYCd/p4Sgy+jrtOs63Q931LfCRKazl7yXIL+RaB7zoWELFLnZDCNMphciAivde4qEWQxDUDGwzYyVIvJH2wx+WQxjQXs9PeVGHxJXzIVG6x1nngWEylMXwV6gGgxkcQ0qnX2ZrSYSGMahcyf0WKqW5hLFpNz5ZDBNJbvfAaTT2qD3dEZHo61l4D0zyfrOf2u1kDMZ2EOR+Q6CVmE3lUryFwa0DbDETmG2DZ3xQoylwYgg0NyfIXIrE+A6DWXSF+yNSLXdJUYfElrsDw6M77zhKLFhBZTV2sg6vNQh2NyU5pMXbmCTKYhJhNUmBBtpnpqK9lMn2MGB+Uwbaagb5pLr81Es5hsjclh2kwBaUyWx2fG9554NlNAKtNXoQ5H5Sa0mQKSmUa1z51ROUybiXSmUczgsByqzTRQZ2I0LGdtWA7VZhqgM9Eyx4/5rdr4egbNp1rmGAzQi4jex/TqVakz0OvqPkTvk/SgRl93lQj46heH8I3HByccMUR8AxY9Eb4LtQ+MWrMeb2IyfgPUHuJ3gR8H/Hosz8n4DdBtiN8Ffj7g1zOjbzJ+tEGKOT+wQ0pzjMGvb4kS8fscvxXgh7jFzZI8d2N+cIeiHmFtMnzkupvjWwL3oWeNyWT8yHk35wcmUCJqL3VNJ3wGY/0u9N4R+ZH3bqH6zae+rMh7N69/DFifPmL9I+/dnB+H5gti/SPv3ZwfmDfDAkR+5L2b8wNDf4wj8huwgQjxu8AvmLH+kfpizM+D7jum/UnyizE/n83nvpP6Yr36IeILSX2xXvswrZeQ1BdzfmDmEmbvF5L6Ys4Peu+I6mdI6ot9fohzX0JSX8z5dea+ILafpL6Y84PqC2b/R+qL/frnILafpL4Y8wNTXzji1LOQxBdjfAy4fxxx6mdI6ov16oeIr2mpiZ+9hUfNxhcoAEl/MQYIVm1yRPePOaS/mFdAsPaII86eYA4JMOYA4e62iAIac0iBMQcIxt85ogfIHJJgrNfApk9EAUgajDlAsP4I8xPbzCERxhhgs/f2DCoMc0iGMQYI9zvE9eNJhzGvgdCIwQRYJ0IA7a1iQXXkGQkx5gChEoO4jIUxUmLM+0AGACIuw2WMlBhzgGAqDKoSw0iJMQcIR5MwlRhGSow5QLhfNuJkbMZIiTEHCCbToyoxjJQYY4AebEJRAZISYwzQB3vZ4RoxpMSY18Al9AMRRyNql4UA2tvHHFWJcUmJMa+B8IOWiFPqWc2LAJqsCZxRiXFJiTEHuJrRjXBJiTEHCFa1YG4p2ewfRAANAMKPYWFKaS4pMeYAgSOPKqW5fUpM9VUkVQYtksG/z7KO+HY4FdZ1eQLz98e3yLfvKIGPLj2I/CnKo+JqLbf9H15qwqqc6XtMY7+35dVjTPa/x1Qe5lKBbuJ+qGr7S8ZCnfE/&lt;/diagram&gt;&lt;/mxfile&gt;" style="background-color: rgb(255, 255, 255);"><defs/><g transform="translate(0.5,0.5)"><path d="M 45 50 L 46.3 53.81 L 50 53.81 L 47.04 56.1 L 48.26 60 L 45 57.62 L 41.74 60 L 43 56.1 L 40 53.81 L 43.7 53.81 Z" fill="#737373" stroke="none" pointer-events="none"/><path d="M 20 180 L 20 26.37" fill="none" stroke="#000000" stroke-miterlimit="10" pointer-events="none"/><path d="M 20 21.12 L 23.5 28.12 L 20 26.37 L 16.5 28.12 Z" fill="#000000" stroke="#000000" stroke-miterlimit="10" pointer-events="none"/><path d="M 20 180 L 173.63 180" fill="none" stroke="#000000" stroke-miterlimit="10" pointer-events="none"/><path d="M 178.88 180 L 171.88 183.5 L 173.63 180 L 171.88 176.5 Z" fill="#000000" stroke="#000000" stroke-miterlimit="10" pointer-events="none"/><g transform="translate(17.5,6.5)"><switch><foreignObject style="overflow:visible;" pointer-events="all" width="4" height="7" requiredFeatures="http://www.w3.org/TR/SVG11/feature#Extensibility"><div xmlns="http://www.w3.org/1999/xhtml" style="display: inline-block; font-size: 8px; font-family: Verdana; color: rgb(0, 0, 0); line-height: 1.2; vertical-align: top; width: 6px; white-space: nowrap; word-wrap: normal; text-align: center;"><div xmlns="http://www.w3.org/1999/xhtml" style="display:inline-block;text-align:inherit;text-decoration:inherit;">y</div></div></foreignObject><text x="2" y="8" fill="#000000" text-anchor="middle" font-size="8px" font-family="Verdana">y</text></switch></g><g transform="translate(187.5,176.5)"><switch><foreignObject style="overflow:visible;" pointer-events="all" width="4" height="7" requiredFeatures="http://www.w3.org/TR/SVG11/feature#Extensibility"><div xmlns="http://www.w3.org/1999/xhtml" style="display: inline-block; font-size: 8px; font-family: Verdana; color: rgb(0, 0, 0); line-height: 1.2; vertical-align: top; width: 6px; white-space: nowrap; word-wrap: normal; text-align: center;"><div xmlns="http://www.w3.org/1999/xhtml" style="display:inline-block;text-align:inherit;text-decoration:inherit;">x</div></div></foreignObject><text x="2" y="8" fill="#000000" text-anchor="middle" font-size="8px" font-family="Verdana">x</text></switch></g><g transform="translate(82.5,26.5)"><switch><foreignObject style="overflow:visible;" pointer-events="all" width="34" height="7" requiredFeatures="http://www.w3.org/TR/SVG11/feature#Extensibility"><div xmlns="http://www.w3.org/1999/xhtml" style="display: inline-block; font-size: 8px; font-family: Verdana; color: rgb(0, 0, 0); line-height: 1.2; vertical-align: top; width: 36px; white-space: nowrap; word-wrap: normal; text-align: center;"><div xmlns="http://www.w3.org/1999/xhtml" style="display:inline-block;text-align:inherit;text-decoration:inherit;"><b>r=-0.90</b></div></div></foreignObject><text x="17" y="8" fill="#000000" text-anchor="middle" font-size="8px" font-family="Verdana">&lt;b&gt;r=-0.90&lt;/b&gt;</text></switch></g><path d="M 225 180 L 225 26.37" fill="none" stroke="#000000" stroke-miterlimit="10" pointer-events="none"/><path d="M 225 21.12 L 228.5 28.12 L 225 26.37 L 221.5 28.12 Z" fill="#000000" stroke="#000000" stroke-miterlimit="10" pointer-events="none"/><path d="M 225 180 L 378.63 180" fill="none" stroke="#000000" stroke-miterlimit="10" pointer-events="none"/><path d="M 383.88 180 L 376.88 183.5 L 378.63 180 L 376.88 176.5 Z" fill="#000000" stroke="#000000" stroke-miterlimit="10" pointer-events="none"/><g transform="translate(222.5,6.5)"><switch><foreignObject style="overflow:visible;" pointer-events="all" width="4" height="7" requiredFeatures="http://www.w3.org/TR/SVG11/feature#Extensibility"><div xmlns="http://www.w3.org/1999/xhtml" style="display: inline-block; font-size: 8px; font-family: Verdana; color: rgb(0, 0, 0); line-height: 1.2; vertical-align: top; width: 6px; white-space: nowrap; word-wrap: normal; text-align: center;"><div xmlns="http://www.w3.org/1999/xhtml" style="display:inline-block;text-align:inherit;text-decoration:inherit;">y</div></div></foreignObject><text x="2" y="8" fill="#000000" text-anchor="middle" font-size="8px" font-family="Verdana">y</text></switch></g><g transform="translate(392.5,176.5)"><switch><foreignObject style="overflow:visible;" pointer-events="all" width="4" height="7" requiredFeatures="http://www.w3.org/TR/SVG11/feature#Extensibility"><div xmlns="http://www.w3.org/1999/xhtml" style="display: inline-block; font-size: 8px; font-family: Verdana; color: rgb(0, 0, 0); line-height: 1.2; vertical-align: top; width: 6px; white-space: nowrap; word-wrap: normal; text-align: center;"><div xmlns="http://www.w3.org/1999/xhtml" style="display:inline-block;text-align:inherit;text-decoration:inherit;">x</div></div></foreignObject><text x="2" y="8" fill="#000000" text-anchor="middle" font-size="8px" font-family="Verdana">x</text></switch></g><g transform="translate(287.5,26.5)"><switch><foreignObject style="overflow:visible;" pointer-events="all" width="34" height="7" requiredFeatures="http://www.w3.org/TR/SVG11/feature#Extensibility"><div xmlns="http://www.w3.org/1999/xhtml" style="display: inline-block; font-size: 8px; font-family: Verdana; color: rgb(0, 0, 0); line-height: 1.2; vertical-align: top; width: 36px; white-space: nowrap; word-wrap: normal; text-align: center;"><div xmlns="http://www.w3.org/1999/xhtml" style="display:inline-block;text-align:inherit;text-decoration:inherit;"><b>r=-0.50</b></div></div></foreignObject><text x="17" y="8" fill="#000000" text-anchor="middle" font-size="8px" font-family="Verdana">&lt;b&gt;r=-0.50&lt;/b&gt;</text></switch></g><path d="M 425 180 L 425 26.37" fill="none" stroke="#000000" stroke-miterlimit="10" pointer-events="none"/><path d="M 425 21.12 L 428.5 28.12 L 425 26.37 L 421.5 28.12 Z" fill="#000000" stroke="#000000" stroke-miterlimit="10" pointer-events="none"/><path d="M 425 180 L 578.63 180" fill="none" stroke="#000000" stroke-miterlimit="10" pointer-events="none"/><path d="M 583.88 180 L 576.88 183.5 L 578.63 180 L 576.88 176.5 Z" fill="#000000" stroke="#000000" stroke-miterlimit="10" pointer-events="none"/><g transform="translate(422.5,6.5)"><switch><foreignObject style="overflow:visible;" pointer-events="all" width="4" height="7" requiredFeatures="http://www.w3.org/TR/SVG11/feature#Extensibility"><div xmlns="http://www.w3.org/1999/xhtml" style="display: inline-block; font-size: 8px; font-family: Verdana; color: rgb(0, 0, 0); line-height: 1.2; vertical-align: top; width: 6px; white-space: nowrap; word-wrap: normal; text-align: center;"><div xmlns="http://www.w3.org/1999/xhtml" style="display:inline-block;text-align:inherit;text-decoration:inherit;">y</div></div></foreignObject><text x="2" y="8" fill="#000000" text-anchor="middle" font-size="8px" font-family="Verdana">y</text></switch></g><g transform="translate(592.5,176.5)"><switch><foreignObject style="overflow:visible;" pointer-events="all" width="4" height="7" requiredFeatures="http://www.w3.org/TR/SVG11/feature#Extensibility"><div xmlns="http://www.w3.org/1999/xhtml" style="display: inline-block; font-size: 8px; font-family: Verdana; color: rgb(0, 0, 0); line-height: 1.2; vertical-align: top; width: 6px; white-space: nowrap; word-wrap: normal; text-align: center;"><div xmlns="http://www.w3.org/1999/xhtml" style="display:inline-block;text-align:inherit;text-decoration:inherit;">x</div></div></foreignObject><text x="2" y="8" fill="#000000" text-anchor="middle" font-size="8px" font-family="Verdana">x</text></switch></g><g transform="translate(489.5,26.5)"><switch><foreignObject style="overflow:visible;" pointer-events="all" width="30" height="7" requiredFeatures="http://www.w3.org/TR/SVG11/feature#Extensibility"><div xmlns="http://www.w3.org/1999/xhtml" style="display: inline-block; font-size: 8px; font-family: Verdana; color: rgb(0, 0, 0); line-height: 1.2; vertical-align: top; width: 32px; white-space: nowrap; word-wrap: normal; text-align: center;"><div xmlns="http://www.w3.org/1999/xhtml" style="display:inline-block;text-align:inherit;text-decoration:inherit;"><b>r=0.00</b></div></div></foreignObject><text x="15" y="8" fill="#000000" text-anchor="middle" font-size="8px" font-family="Verdana">&lt;b&gt;r=0.00&lt;/b&gt;</text></switch></g><path d="M 20 370 L 20 216.37" fill="none" stroke="#000000" stroke-miterlimit="10" pointer-events="none"/><path d="M 20 211.12 L 23.5 218.12 L 20 216.37 L 16.5 218.12 Z" fill="#000000" stroke="#000000" stroke-miterlimit="10" pointer-events="none"/><path d="M 20 370 L 173.63 370" fill="none" stroke="#000000" stroke-miterlimit="10" pointer-events="none"/><path d="M 178.88 370 L 171.88 373.5 L 173.63 370 L 171.88 366.5 Z" fill="#000000" stroke="#000000" stroke-miterlimit="10" pointer-events="none"/><g transform="translate(17.5,196.5)"><switch><foreignObject style="overflow:visible;" pointer-events="all" width="4" height="7" requiredFeatures="http://www.w3.org/TR/SVG11/feature#Extensibility"><div xmlns="http://www.w3.org/1999/xhtml" style="display: inline-block; font-size: 8px; font-family: Verdana; color: rgb(0, 0, 0); line-height: 1.2; vertical-align: top; width: 6px; white-space: nowrap; word-wrap: normal; text-align: center;"><div xmlns="http://www.w3.org/1999/xhtml" style="display:inline-block;text-align:inherit;text-decoration:inherit;">y</div></div></foreignObject><text x="2" y="8" fill="#000000" text-anchor="middle" font-size="8px" font-family="Verdana">y</text></switch></g><g transform="translate(187.5,366.5)"><switch><foreignObject style="overflow:visible;" pointer-events="all" width="4" height="7" requiredFeatures="http://www.w3.org/TR/SVG11/feature#Extensibility"><div xmlns="http://www.w3.org/1999/xhtml" style="display: inline-block; font-size: 8px; font-family: Verdana; color: rgb(0, 0, 0); line-height: 1.2; vertical-align: top; width: 6px; white-space: nowrap; word-wrap: normal; text-align: center;"><div xmlns="http://www.w3.org/1999/xhtml" style="display:inline-block;text-align:inherit;text-decoration:inherit;">x</div></div></foreignObject><text x="2" y="8" fill="#000000" text-anchor="middle" font-size="8px" font-family="Verdana">x</text></switch></g><g transform="translate(84.5,216.5)"><switch><foreignObject style="overflow:visible;" pointer-events="all" width="30" height="7" requiredFeatures="http://www.w3.org/TR/SVG11/feature#Extensibility"><div xmlns="http://www.w3.org/1999/xhtml" style="display: inline-block; font-size: 8px; font-family: Verdana; color: rgb(0, 0, 0); line-height: 1.2; vertical-align: top; width: 32px; white-space: nowrap; word-wrap: normal; text-align: center;"><div xmlns="http://www.w3.org/1999/xhtml" style="display:inline-block;text-align:inherit;text-decoration:inherit;"><b>r=0.50</b></div></div></foreignObject><text x="15" y="8" fill="#000000" text-anchor="middle" font-size="8px" font-family="Verdana">&lt;b&gt;r=0.50&lt;/b&gt;</text></switch></g><path d="M 225 370 L 225 216.37" fill="none" stroke="#000000" stroke-miterlimit="10" pointer-events="none"/><path d="M 225 211.12 L 228.5 218.12 L 225 216.37 L 221.5 218.12 Z" fill="#000000" stroke="#000000" stroke-miterlimit="10" pointer-events="none"/><path d="M 225 370 L 378.63 370" fill="none" stroke="#000000" stroke-miterlimit="10" pointer-events="none"/><path d="M 383.88 370 L 376.88 373.5 L 378.63 370 L 376.88 366.5 Z" fill="#000000" stroke="#000000" stroke-miterlimit="10" pointer-events="none"/><g transform="translate(222.5,196.5)"><switch><foreignObject style="overflow:visible;" pointer-events="all" width="4" height="7" requiredFeatures="http://www.w3.org/TR/SVG11/feature#Extensibility"><div xmlns="http://www.w3.org/1999/xhtml" style="display: inline-block; font-size: 8px; font-family: Verdana; color: rgb(0, 0, 0); line-height: 1.2; vertical-align: top; width: 6px; white-space: nowrap; word-wrap: normal; text-align: center;"><div xmlns="http://www.w3.org/1999/xhtml" style="display:inline-block;text-align:inherit;text-decoration:inherit;">y</div></div></foreignObject><text x="2" y="8" fill="#000000" text-anchor="middle" font-size="8px" font-family="Verdana">y</text></switch></g><g transform="translate(392.5,366.5)"><switch><foreignObject style="overflow:visible;" pointer-events="all" width="4" height="7" requiredFeatures="http://www.w3.org/TR/SVG11/feature#Extensibility"><div xmlns="http://www.w3.org/1999/xhtml" style="display: inline-block; font-size: 8px; font-family: Verdana; color: rgb(0, 0, 0); line-height: 1.2; vertical-align: top; width: 6px; white-space: nowrap; word-wrap: normal; text-align: center;"><div xmlns="http://www.w3.org/1999/xhtml" style="display:inline-block;text-align:inherit;text-decoration:inherit;">x</div></div></foreignObject><text x="2" y="8" fill="#000000" text-anchor="middle" font-size="8px" font-family="Verdana">x</text></switch></g><g transform="translate(289.5,216.5)"><switch><foreignObject style="overflow:visible;" pointer-events="all" width="30" height="7" requiredFeatures="http://www.w3.org/TR/SVG11/feature#Extensibility"><div xmlns="http://www.w3.org/1999/xhtml" style="display: inline-block; font-size: 8px; font-family: Verdana; color: rgb(0, 0, 0); line-height: 1.2; vertical-align: top; width: 32px; white-space: nowrap; word-wrap: normal; text-align: center;"><div xmlns="http://www.w3.org/1999/xhtml" style="display:inline-block;text-align:inherit;text-decoration:inherit;"><b>r=0.90</b></div></div></foreignObject><text x="15" y="8" fill="#000000" text-anchor="middle" font-size="8px" font-family="Verdana">&lt;b&gt;r=0.90&lt;/b&gt;</text></switch></g><path d="M 425 370 L 425 216.37" fill="none" stroke="#000000" stroke-miterlimit="10" pointer-events="none"/><path d="M 425 211.12 L 428.5 218.12 L 425 216.37 L 421.5 218.12 Z" fill="#000000" stroke="#000000" stroke-miterlimit="10" pointer-events="none"/><path d="M 425 370 L 578.63 370" fill="none" stroke="#000000" stroke-miterlimit="10" pointer-events="none"/><path d="M 583.88 370 L 576.88 373.5 L 578.63 370 L 576.88 366.5 Z" fill="#000000" stroke="#000000" stroke-miterlimit="10" pointer-events="none"/><g transform="translate(422.5,196.5)"><switch><foreignObject style="overflow:visible;" pointer-events="all" width="4" height="7" requiredFeatures="http://www.w3.org/TR/SVG11/feature#Extensibility"><div xmlns="http://www.w3.org/1999/xhtml" style="display: inline-block; font-size: 8px; font-family: Verdana; color: rgb(0, 0, 0); line-height: 1.2; vertical-align: top; width: 6px; white-space: nowrap; word-wrap: normal; text-align: center;"><div xmlns="http://www.w3.org/1999/xhtml" style="display:inline-block;text-align:inherit;text-decoration:inherit;">y</div></div></foreignObject><text x="2" y="8" fill="#000000" text-anchor="middle" font-size="8px" font-family="Verdana">y</text></switch></g><g transform="translate(592.5,366.5)"><switch><foreignObject style="overflow:visible;" pointer-events="all" width="4" height="7" requiredFeatures="http://www.w3.org/TR/SVG11/feature#Extensibility"><div xmlns="http://www.w3.org/1999/xhtml" style="display: inline-block; font-size: 8px; font-family: Verdana; color: rgb(0, 0, 0); line-height: 1.2; vertical-align: top; width: 6px; white-space: nowrap; word-wrap: normal; text-align: center;"><div xmlns="http://www.w3.org/1999/xhtml" style="display:inline-block;text-align:inherit;text-decoration:inherit;">x</div></div></foreignObject><text x="2" y="8" fill="#000000" text-anchor="middle" font-size="8px" font-family="Verdana">x</text></switch></g><g transform="translate(489.5,216.5)"><switch><foreignObject style="overflow:visible;" pointer-events="all" width="30" height="7" requiredFeatures="http://www.w3.org/TR/SVG11/feature#Extensibility"><div xmlns="http://www.w3.org/1999/xhtml" style="display: inline-block; font-size: 8px; font-family: Verdana; color: rgb(0, 0, 0); line-height: 1.2; vertical-align: top; width: 32px; white-space: nowrap; word-wrap: normal; text-align: center;"><div xmlns="http://www.w3.org/1999/xhtml" style="display:inline-block;text-align:inherit;text-decoration:inherit;"><b>r=1.00</b></div></div></foreignObject><text x="15" y="8" fill="#000000" text-anchor="middle" font-size="8px" font-family="Verdana">&lt;b&gt;r=1.00&lt;/b&gt;</text></switch></g><path d="M 70 70 L 71.3 73.81 L 75 73.81 L 72.04 76.1 L 73.26 80 L 70 77.62 L 66.74 80 L 68 76.1 L 65 73.81 L 68.7 73.81 Z" fill="#737373" stroke="none" pointer-events="none"/><path d="M 55 70 L 56.3 73.81 L 60 73.81 L 57.04 76.1 L 58.26 80 L 55 77.62 L 51.74 80 L 53 76.1 L 50 73.81 L 53.7 73.81 Z" fill="#737373" stroke="none" pointer-events="none"/><path d="M 85 75 L 86.3 78.81 L 90 78.81 L 87.04 81.1 L 88.26 85 L 85 82.62 L 81.74 85 L 83 81.1 L 80 78.81 L 83.7 78.81 Z" fill="#737373" stroke="none" pointer-events="none"/><path d="M 80 95 L 81.3 98.81 L 85 98.81 L 82.04 101.1 L 83.26 105 L 80 102.62 L 76.74 105 L 78 101.1 L 75 98.81 L 78.7 98.81 Z" fill="#737373" stroke="none" pointer-events="none"/><path d="M 105 90 L 106.3 93.81 L 110 93.81 L 107.04 96.1 L 108.26 100 L 105 97.62 L 101.74 100 L 103 96.1 L 100 93.81 L 103.7 93.81 Z" fill="#737373" stroke="none" pointer-events="none"/><path d="M 115 110 L 116.3 113.81 L 120 113.81 L 117.04 116.1 L 118.26 120 L 115 117.62 L 111.74 120 L 113 116.1 L 110 113.81 L 113.7 113.81 Z" fill="#737373" stroke="none" pointer-events="none"/><path d="M 135 120 L 136.3 123.81 L 140 123.81 L 137.04 126.1 L 138.26 130 L 135 127.62 L 131.74 130 L 133 126.1 L 130 123.81 L 133.7 123.81 Z" fill="#737373" stroke="none" pointer-events="none"/><path d="M 145 140 L 146.3 143.81 L 150 143.81 L 147.04 146.1 L 148.26 150 L 145 147.62 L 141.74 150 L 143 146.1 L 140 143.81 L 143.7 143.81 Z" fill="#737373" stroke="none" pointer-events="none"/><path d="M 165 150 L 166.3 153.81 L 170 153.81 L 167.04 156.1 L 168.26 160 L 165 157.62 L 161.74 160 L 163 156.1 L 160 153.81 L 163.7 153.81 Z" fill="#737373" stroke="none" pointer-events="none"/><path d="M 245 60 L 246.3 63.81 L 250 63.81 L 247.04 66.1 L 248.26 70 L 245 67.62 L 241.74 70 L 243 66.1 L 240 63.81 L 243.7 63.81 Z" fill="#737373" stroke="none" pointer-events="none"/><path d="M 260 100 L 261.3 103.81 L 265 103.81 L 262.04 106.1 L 263.26 110 L 260 107.62 L 256.74 110 L 258 106.1 L 255 103.81 L 258.7 103.81 Z" fill="#737373" stroke="none" pointer-events="none"/><path d="M 275 70 L 276.3 73.81 L 280 73.81 L 277.04 76.1 L 278.26 80 L 275 77.62 L 271.74 80 L 273 76.1 L 270 73.81 L 273.7 73.81 Z" fill="#737373" stroke="none" pointer-events="none"/><path d="M 310 90 L 311.3 93.81 L 315 93.81 L 312.04 96.1 L 313.26 100 L 310 97.62 L 306.74 100 L 308 96.1 L 305 93.81 L 308.7 93.81 Z" fill="#737373" stroke="none" pointer-events="none"/><path d="M 280 95 L 281.3 98.81 L 285 98.81 L 282.04 101.1 L 283.26 105 L 280 102.62 L 276.74 105 L 278 101.1 L 275 98.81 L 278.7 98.81 Z" fill="#737373" stroke="none" pointer-events="none"/><path d="M 295 130 L 296.3 133.81 L 300 133.81 L 297.04 136.1 L 298.26 140 L 295 137.62 L 291.74 140 L 293 136.1 L 290 133.81 L 293.7 133.81 Z" fill="#737373" stroke="none" pointer-events="none"/><path d="M 320 105 L 321.3 108.81 L 325 108.81 L 322.04 111.1 L 323.26 115 L 320 112.62 L 316.74 115 L 318 111.1 L 315 108.81 L 318.7 108.81 Z" fill="#737373" stroke="none" pointer-events="none"/><path d="M 330 145 L 331.3 148.81 L 335 148.81 L 332.04 151.1 L 333.26 155 L 330 152.62 L 326.74 155 L 328 151.1 L 325 148.81 L 328.7 148.81 Z" fill="#737373" stroke="none" pointer-events="none"/><path d="M 355 115 L 356.3 118.81 L 360 118.81 L 357.04 121.1 L 358.26 125 L 355 122.62 L 351.74 125 L 353 121.1 L 350 118.81 L 353.7 118.81 Z" fill="#737373" stroke="none" pointer-events="none"/><path d="M 350 145 L 351.3 148.81 L 355 148.81 L 352.04 151.1 L 353.26 155 L 350 152.62 L 346.74 155 L 348 151.1 L 345 148.81 L 348.7 148.81 Z" fill="#737373" stroke="none" pointer-events="none"/><path d="M 460 95 L 461.3 98.81 L 465 98.81 L 462.04 101.1 L 463.26 105 L 460 102.62 L 456.74 105 L 458 101.1 L 455 98.81 L 458.7 98.81 Z" fill="#737373" stroke="none" pointer-events="none"/><path d="M 495 70 L 496.3 73.81 L 500 73.81 L 497.04 76.1 L 498.26 80 L 495 77.62 L 491.74 80 L 493 76.1 L 490 73.81 L 493.7 73.81 Z" fill="#737373" stroke="none" pointer-events="none"/><path d="M 460 70 L 461.3 73.81 L 465 73.81 L 462.04 76.1 L 463.26 80 L 460 77.62 L 456.74 80 L 458 76.1 L 455 73.81 L 458.7 73.81 Z" fill="#737373" stroke="none" pointer-events="none"/><path d="M 495 115 L 496.3 118.81 L 500 118.81 L 497.04 121.1 L 498.26 125 L 495 122.62 L 491.74 125 L 493 121.1 L 490 118.81 L 493.7 118.81 Z" fill="#737373" stroke="none" pointer-events="none"/><path d="M 485 95 L 486.3 98.81 L 490 98.81 L 487.04 101.1 L 488.26 105 L 485 102.62 L 481.74 105 L 483 101.1 L 480 98.81 L 483.7 98.81 Z" fill="#737373" stroke="none" pointer-events="none"/><path d="M 520 90 L 521.3 93.81 L 525 93.81 L 522.04 96.1 L 523.26 100 L 520 97.62 L 516.74 100 L 518 96.1 L 515 93.81 L 518.7 93.81 Z" fill="#737373" stroke="none" pointer-events="none"/><path d="M 520 110 L 521.3 113.81 L 525 113.81 L 522.04 116.1 L 523.26 120 L 520 117.62 L 516.74 120 L 518 116.1 L 515 113.81 L 518.7 113.81 Z" fill="#737373" stroke="none" pointer-events="none"/><path d="M 535 125 L 536.3 128.81 L 540 128.81 L 537.04 131.1 L 538.26 135 L 535 132.62 L 531.74 135 L 533 131.1 L 530 128.81 L 533.7 128.81 Z" fill="#737373" stroke="none" pointer-events="none"/><path d="M 555 95 L 556.3 98.81 L 560 98.81 L 557.04 101.1 L 558.26 105 L 555 102.62 L 551.74 105 L 553 101.1 L 550 98.81 L 553.7 98.81 Z" fill="#737373" stroke="none" pointer-events="none"/><path d="M 535 80 L 536.3 83.81 L 540 83.81 L 537.04 86.1 L 538.26 90 L 535 87.62 L 531.74 90 L 533 86.1 L 530 83.81 L 533.7 83.81 Z" fill="#737373" stroke="none" pointer-events="none"/><path d="M 45 340 L 46.3 343.81 L 50 343.81 L 47.04 346.1 L 48.26 350 L 45 347.62 L 41.74 350 L 43 346.1 L 40 343.81 L 43.7 343.81 Z" fill="#737373" stroke="none" pointer-events="none"/><path d="M 95 320 L 96.3 323.81 L 100 323.81 L 97.04 326.1 L 98.26 330 L 95 327.62 L 91.74 330 L 93 326.1 L 90 323.81 L 93.7 323.81 Z" fill="#737373" stroke="none" pointer-events="none"/><path d="M 45 320 L 46.3 323.81 L 50 323.81 L 47.04 326.1 L 48.26 330 L 45 327.62 L 41.74 330 L 43 326.1 L 40 323.81 L 43.7 323.81 Z" fill="#737373" stroke="none" pointer-events="none"/><path d="M 85 285 L 86.3 288.81 L 90 288.81 L 87.04 291.1 L 88.26 295 L 85 292.62 L 81.74 295 L 83 291.1 L 80 288.81 L 83.7 288.81 Z" fill="#737373" stroke="none" pointer-events="none"/><path d="M 70 310 L 71.3 313.81 L 75 313.81 L 72.04 316.1 L 73.26 320 L 70 317.62 L 66.74 320 L 68 316.1 L 65 313.81 L 68.7 313.81 Z" fill="#737373" stroke="none" pointer-events="none"/><path d="M 105 305 L 106.3 308.81 L 110 308.81 L 107.04 311.1 L 108.26 315 L 105 312.62 L 101.74 315 L 103 311.1 L 100 308.81 L 103.7 308.81 Z" fill="#737373" stroke="none" pointer-events="none"/><path d="M 125 290 L 126.3 293.81 L 130 293.81 L 127.04 296.1 L 128.26 300 L 125 297.62 L 121.74 300 L 123 296.1 L 120 293.81 L 123.7 293.81 Z" fill="#737373" stroke="none" pointer-events="none"/><path d="M 150 280 L 151.3 283.81 L 155 283.81 L 152.04 286.1 L 153.26 290 L 150 287.62 L 146.74 290 L 148 286.1 L 145 283.81 L 148.7 283.81 Z" fill="#737373" stroke="none" pointer-events="none"/><path d="M 125 265 L 126.3 268.81 L 130 268.81 L 127.04 271.1 L 128.26 275 L 125 272.62 L 121.74 275 L 123 271.1 L 120 268.81 L 123.7 268.81 Z" fill="#737373" stroke="none" pointer-events="none"/><path d="M 165 250 L 166.3 253.81 L 170 253.81 L 167.04 256.1 L 168.26 260 L 165 257.62 L 161.74 260 L 163 256.1 L 160 253.81 L 163.7 253.81 Z" fill="#737373" stroke="none" pointer-events="none"/><path d="M 240 340 L 241.3 343.81 L 245 343.81 L 242.04 346.1 L 243.26 350 L 240 347.62 L 236.74 350 L 238 346.1 L 235 343.81 L 238.7 343.81 Z" fill="#737373" stroke="none" pointer-events="none"/><path d="M 290 320 L 291.3 323.81 L 295 323.81 L 292.04 326.1 L 293.26 330 L 290 327.62 L 286.74 330 L 288 326.1 L 285 323.81 L 288.7 323.81 Z" fill="#737373" stroke="none" pointer-events="none"/><path d="M 250 320 L 251.3 323.81 L 255 323.81 L 252.04 326.1 L 253.26 330 L 250 327.62 L 246.74 330 L 248 326.1 L 245 323.81 L 248.7 323.81 Z" fill="#737373" stroke="none" pointer-events="none"/><path d="M 280 310 L 281.3 313.81 L 285 313.81 L 282.04 316.1 L 283.26 320 L 280 317.62 L 276.74 320 L 278 316.1 L 275 313.81 L 278.7 313.81 Z" fill="#737373" stroke="none" pointer-events="none"/><path d="M 270 330 L 271.3 333.81 L 275 333.81 L 272.04 336.1 L 273.26 340 L 270 337.62 L 266.74 340 L 268 336.1 L 265 333.81 L 268.7 333.81 Z" fill="#737373" stroke="none" pointer-events="none"/><path d="M 300 300 L 301.3 303.81 L 305 303.81 L 302.04 306.1 L 303.26 310 L 300 307.62 L 296.74 310 L 298 306.1 L 295 303.81 L 298.7 303.81 Z" fill="#737373" stroke="none" pointer-events="none"/><path d="M 320 290 L 321.3 293.81 L 325 293.81 L 322.04 296.1 L 323.26 300 L 320 297.62 L 316.74 300 L 318 296.1 L 315 293.81 L 318.7 293.81 Z" fill="#737373" stroke="none" pointer-events="none"/><path d="M 345 280 L 346.3 283.81 L 350 283.81 L 347.04 286.1 L 348.26 290 L 345 287.62 L 341.74 290 L 343 286.1 L 340 283.81 L 343.7 283.81 Z" fill="#737373" stroke="none" pointer-events="none"/><path d="M 330 270 L 331.3 273.81 L 335 273.81 L 332.04 276.1 L 333.26 280 L 330 277.62 L 326.74 280 L 328 276.1 L 325 273.81 L 328.7 273.81 Z" fill="#737373" stroke="none" pointer-events="none"/><path d="M 360 250 L 361.3 253.81 L 365 253.81 L 362.04 256.1 L 363.26 260 L 360 257.62 L 356.74 260 L 358 256.1 L 355 253.81 L 358.7 253.81 Z" fill="#737373" stroke="none" pointer-events="none"/><path d="M 445 350 L 446.3 353.81 L 450 353.81 L 447.04 356.1 L 448.26 360 L 445 357.62 L 441.74 360 L 443 356.1 L 440 353.81 L 443.7 353.81 Z" fill="#737373" stroke="none" pointer-events="none"/><path d="M 515 290 L 516.3 293.81 L 520 293.81 L 517.04 296.1 L 518.26 300 L 515 297.62 L 511.74 300 L 513 296.1 L 510 293.81 L 513.7 293.81 Z" fill="#737373" stroke="none" pointer-events="none"/><path d="M 460 335 L 461.3 338.81 L 465 338.81 L 462.04 341.1 L 463.26 345 L 460 342.62 L 456.74 345 L 458 341.1 L 455 338.81 L 458.7 338.81 Z" fill="#737373" stroke="none" pointer-events="none"/><path d="M 490 310 L 491.3 313.81 L 495 313.81 L 492.04 316.1 L 493.26 320 L 490 317.62 L 486.74 320 L 488 316.1 L 485 313.81 L 488.7 313.81 Z" fill="#737373" stroke="none" pointer-events="none"/><path d="M 475 325 L 476.3 328.81 L 480 328.81 L 477.04 331.1 L 478.26 335 L 475 332.62 L 471.74 335 L 473 331.1 L 470 328.81 L 473.7 328.81 Z" fill="#737373" stroke="none" pointer-events="none"/><path d="M 500 300 L 501.3 303.81 L 505 303.81 L 502.04 306.1 L 503.26 310 L 500 307.62 L 496.74 310 L 498 306.1 L 495 303.81 L 498.7 303.81 Z" fill="#737373" stroke="none" pointer-events="none"/><path d="M 570 250 L 571.3 253.81 L 575 253.81 L 572.04 256.1 L 573.26 260 L 570 257.62 L 566.74 260 L 568 256.1 L 565 253.81 L 568.7 253.81 Z" fill="#737373" stroke="none" pointer-events="none"/><path d="M 555 260 L 556.3 263.81 L 560 263.81 L 557.04 266.1 L 558.26 270 L 555 267.62 L 551.74 270 L 553 266.1 L 550 263.81 L 553.7 263.81 Z" fill="#737373" stroke="none" pointer-events="none"/><path d="M 530 280 L 531.3 283.81 L 535 283.81 L 532.04 286.1 L 533.26 290 L 530 287.62 L 526.74 290 L 528 286.1 L 525 283.81 L 528.7 283.81 Z" fill="#737373" stroke="none" pointer-events="none"/><path d="M 545 270 L 546.3 273.81 L 550 273.81 L 547.04 276.1 L 548.26 280 L 545 277.62 L 541.74 280 L 543 276.1 L 540 273.81 L 543.7 273.81 Z" fill="#737373" stroke="none" pointer-events="none"/><g transform="translate(538.5,394.5)"><switch><foreignObject style="overflow:visible;" pointer-events="all" width="112" height="16" requiredFeatures="http://www.w3.org/TR/SVG11/feature#Extensibility"><div xmlns="http://www.w3.org/1999/xhtml" style="display: inline-block; font-size: 8px; font-family: Verdana; color: rgb(0, 0, 0); line-height: 1.2; vertical-align: top; width: 114px; white-space: nowrap; word-wrap: normal; text-align: center;"><div xmlns="http://www.w3.org/1999/xhtml" style="display:inline-block;text-align:inherit;text-decoration:inherit;"><font style="font-size: 15px"><b>berkarat.com</b></font></div></div></foreignObject><text x="56" y="12" fill="#000000" text-anchor="middle" font-size="8px" font-family="Verdana">&lt;font style="font-size: 15px"&gt;&lt;b&gt;berkarat.com&lt;/b&gt;&lt;/font&gt;</text></switch></g></g></svg>