<!DOCTYPE svg PUBLIC "-//W3C//DTD SVG 1.1//EN" "http://www.w3.org/Graphics/SVG/1.1/DTD/svg11.dtd">
<svg xmlns="http://www.w3.org/2000/svg" xmlns:xlink="http://www.w3.org/1999/xlink" width="380px" height="206px" version="1.1" content="&lt;mxfile userAgent=&quot;Mozilla/5.0 (Windows NT 10.0; Win64; x64) AppleWebKit/537.36 (KHTML, like Gecko) Chrome/64.0.3282.119 Safari/537.36&quot; version=&quot;8.0.9&quot; editor=&quot;www.draw.io&quot; type=&quot;device&quot;&gt;&lt;diagram id=&quot;cce6166c-b9db-3506-36b5-6d654a4db20b&quot; name=&quot;Page-1&quot;&gt;7Vtbc+I2FP41zLQPy/h+eQwktA+7051Jp919VGwB2siWK8sB9tdXsiWDLJNAMEyyIQ+MdWTrcr7j71zkjNxptv6DgmL5haQQjxwrXY/c25HjRKHDf4Vg0wjcyG0EC4rSRmRvBffoJ5RCS0orlMJSu5ERghkqdGFC8hwmTJMBSslKv21OsD5rARbQENwnAJvSf1HKllJqB/G240+IFks5deSETccDSB4XlFS5nG/kuPP6r+nOgBpLbrRcgpSsdkTu3cidUkJYc5WtpxAL1Sq1Nc/N9vS266YwZwc94ModPQFcQbXmemVso7SxWiIG7wuQiPaKAz5yJ0uWYd6y+SUoiwaDOVpDPu6kZJQ8winBhNYDuFb91/YolYqH5whjdWdOcj7DZEFBivj6O+I5ydkMZAgLm/oH0hTkQIqlAUWy2TczwGiRcxmGc77Uidw0pAyu96rObgHhdg5JBhnd8FvkA54yVmnj3Dya9mrXYqJGttwxllYIpJUu2rG3SPELCdYe4DzLAO5uNPVG8QwxlPEOriJUIgNMvmGm46fDpbRt4qJUmHAFQS6fCPUh/tLcyI4MpamYZtJnMPVLIczj1joZzCHQ8zwdPS820PNtEzz14p6GnW3AAlNOQLIp9a1r7EeVFeoGQBMlaZTlWDqkcI3Yt53r72KQseOLZs5X+00OWjd2OksGKLsRBLpdRi2bIbEb+UzauYNLdvp/QMY2cl2gYoSLCGVLsiA5wJ8JKTSz07hgAKMQetRMoiQVTZRIsR3f0gKyjvAA46EQA4ae9BlOMwWTbi9hCuFzphC+d1NIQbmstWW/X7twDXr/G5Zs5AQgE3SaP5RFvbkACzp/oPxqIa4U7XflV0ewzxHEmiNwLdMRKF+refFBHIHXE301yIkta4AF/1VEdXwqa93c8BvCYr3ta8GeuqM4+Jlz7WP0iCH9bQYBqygsf1fj87U1U1zN41nz8J1OlGeah+ufK07wj3MO9mudgzXW3YMvW185mfBlCxS3TqLHY7zCYSQYlCVKNJ9hv/HwwQt63IRvDe8m6ke5psBm54aCoJyVOyN/FYKtqfpB0DFVr2NtzYhb22uXdqA5Bj1s1bFPntAW4jKpKN5MKE+HhaJ63/QdO9RN+B3kjymiPOdFRIhWwi8PQja+20kpe5KSPl/kDhJxhG+WbMZttPq9NZFfn2yiPrJx3gjZBJFuqu7gZBNdyeayZBMfSDaDRDaxAeYAzNLDKx87YFGxydk55GDgfbNsqTKSFD31JjwiE/kkXwmR8ci8wkx65DhlAfKu7NBsKujLpm7wglDEMrA3d2rFfXNzcb21PYkWVxAqyn3p0Huts7fJ3xBMFetMZcfeQUzlDcFU/pG12gHJ6yMQ1LniGSNgCZ3ucY03ti3X8yIn9KOgO2DDmHKMjrkcGcmoPV6I8r78dXv3+TRK0mswL9DSR2GhwPc7LNRzYnSueMk3y8FtiVfBeE/yShT+bkIM6A7SD9ca3/PIhrZeAnasw/zLIDU+v68EfH0fX0bNjeNxYMeWF8pf/e30IwNDN+wF0R0CxUtVap9JceyPkuIYNtINKry+rMe7WIrTVybtcPUDpI+AAjZOSHal6mOoulN2Uuekl6Bq9RHb9az+wmf1588OfCcaO5Ef2p781QOCyNJ63Y7LaNjHSBaMWYxPxl4Yd8AkJDLDjFvSfC9GKwxEbePKOId8H+CowvdFGCc4jXHkDec5lHE+yKnMS+FG5PeFG84QPHX0qUwQ6cYaWx17O/FURu31eipzrlMZp4Og0vglPkeKwpfR3ZarW5wxqdJX5aUz/vcmIB20Wt05GbUjx0Aw6EHQj4dA8IDP+YdDMOIIHv5SvkGowlCHKjQLP0FoQhX6R0PFm9v/6miYd/ufM+7d/w==&lt;/diagram&gt;&lt;/mxfile&gt;" style="background-color: rgb(255, 255, 255);"><defs/><g transform="translate(0.5,0.5)"><rect x="10" y="53" width="118" height="118" fill="none" stroke="#000000" pointer-events="none"/><g transform="translate(44.5,92.5)"><switch><foreignObject style="overflow:visible;" pointer-events="all" width="49" height="16" requiredFeatures="http://www.w3.org/TR/SVG11/feature#Extensibility"><div xmlns="http://www.w3.org/1999/xhtml" style="display: inline-block; font-size: 8px; font-family: Verdana; color: rgb(0, 0, 0); line-height: 1.2; vertical-align: top; width: 49px; white-space: normal; word-wrap: normal; text-align: center;"><div xmlns="http://www.w3.org/1999/xhtml" style="display:inline-block;text-align:inherit;text-decoration:inherit;">Eğitim Verisi</div></div></foreignObject><text x="25" y="12" fill="#000000" text-anchor="middle" font-size="8px" font-family="Verdana">Eğitim Verisi</text></switch></g><path d="M 128 83 L 10 83" fill="none" stroke="#000000" stroke-miterlimit="10" pointer-events="none"/><path d="M 128 142 L 10 142" fill="none" stroke="#000000" stroke-miterlimit="10" stroke-dasharray="3 3" pointer-events="none"/><g transform="translate(57.5,147.5)"><switch><foreignObject style="overflow:visible;" pointer-events="all" width="22" height="16" requiredFeatures="http://www.w3.org/TR/SVG11/feature#Extensibility"><div xmlns="http://www.w3.org/1999/xhtml" style="display: inline-block; font-size: 8px; font-family: Verdana; color: rgb(0, 0, 0); line-height: 1.2; vertical-align: top; width: 22px; white-space: nowrap; word-wrap: normal; text-align: center;"><div xmlns="http://www.w3.org/1999/xhtml" style="display:inline-block;text-align:inherit;text-decoration:inherit;">Test <br />Verisi<br /></div></div></foreignObject><text x="11" y="12" fill="#000000" text-anchor="middle" font-size="8px" font-family="Verdana">[Not supported by viewer]</text></switch></g><g transform="translate(30.5,67.5)"><switch><foreignObject style="overflow:visible;" pointer-events="all" width="77" height="7" requiredFeatures="http://www.w3.org/TR/SVG11/feature#Extensibility"><div xmlns="http://www.w3.org/1999/xhtml" style="display: inline-block; font-size: 8px; font-family: Verdana; color: rgb(0, 0, 0); line-height: 1.2; vertical-align: top; width: 77px; white-space: nowrap; word-wrap: normal; text-align: center;"><div xmlns="http://www.w3.org/1999/xhtml" style="display:inline-block;text-align:inherit;text-decoration:inherit;"><font style="font-size: 7px">Öznitelikler(Features)</font></div></div></foreignObject><text x="39" y="8" fill="#000000" text-anchor="middle" font-size="8px" font-family="Verdana">[Not supported by viewer]</text></switch></g><path d="M 166 107 L 166 66 Q 166 56 174.82 56 L 183.63 56" fill="none" stroke="#000000" stroke-miterlimit="10" pointer-events="none"/><path d="M 188.88 56 L 181.88 59.5 L 183.63 56 L 181.88 52.5 Z" fill="#000000" stroke="#000000" stroke-miterlimit="10" pointer-events="none"/><path d="M 170 91 L 160 91 Q 150 91 150 98.75 L 150 102.63 Q 150 106.5 140 106.5 L 135 106.5 Q 130 106.5 140 106.5 L 145 106.5 Q 150 106.5 150 114.25 L 150 118.13 Q 150 122 160 122 L 170 122" fill="none" stroke="#000000" stroke-miterlimit="10" transform="rotate(180,150,106.5)" pointer-events="none"/><path d="M 166 156 L 270 156 Q 280 156 280 146 L 280 77.37" fill="none" stroke="#000000" stroke-miterlimit="10" pointer-events="none"/><path d="M 280 72.12 L 283.5 79.12 L 280 77.37 L 276.5 79.12 Z" fill="#000000" stroke="#000000" stroke-miterlimit="10" pointer-events="none"/><path d="M 170 141 L 160 141 Q 150 141 150 148.5 L 150 152.25 Q 150 156 140 156 L 135 156 Q 130 156 140 156 L 145 156 Q 150 156 150 163.5 L 150 167.25 Q 150 171 160 171 L 170 171" fill="none" stroke="#000000" stroke-miterlimit="10" transform="rotate(180,150,156)" pointer-events="none"/><path d="M 230 56 L 248.63 56" fill="none" stroke="#000000" stroke-miterlimit="10" pointer-events="none"/><path d="M 253.88 56 L 246.88 59.5 L 248.63 56 L 246.88 52.5 Z" fill="#000000" stroke="#000000" stroke-miterlimit="10" pointer-events="none"/><ellipse cx="210" cy="56" rx="20" ry="20" fill="none" stroke="#000000" pointer-events="none"/><g transform="translate(194.5,52.5)"><switch><foreignObject style="overflow:visible;" pointer-events="all" width="30" height="7" requiredFeatures="http://www.w3.org/TR/SVG11/feature#Extensibility"><div xmlns="http://www.w3.org/1999/xhtml" style="display: inline-block; font-size: 8px; font-family: Verdana; color: rgb(0, 0, 0); line-height: 1.2; vertical-align: top; width: 30px; white-space: nowrap; word-wrap: normal; text-align: center;"><div xmlns="http://www.w3.org/1999/xhtml" style="display:inline-block;text-align:inherit;text-decoration:inherit;"><div style="text-align: center"><span><font style="font-size: 6px">Algoritma</font></span></div></div></div></foreignObject><text x="15" y="8" fill="#000000" text-anchor="middle" font-size="8px" font-family="Verdana">[Not supported by viewer]</text></switch></g><path d="M 305 56 L 313.63 56.06" fill="none" stroke="#000000" stroke-miterlimit="10" pointer-events="none"/><path d="M 318.88 56.1 L 311.86 59.55 L 313.63 56.06 L 311.91 52.55 Z" fill="#000000" stroke="#000000" stroke-miterlimit="10" pointer-events="none"/><rect x="255" y="41" width="50" height="30" fill="none" stroke="#000000" pointer-events="none"/><g transform="translate(265.5,52.5)"><switch><foreignObject style="overflow:visible;" pointer-events="all" width="28" height="7" requiredFeatures="http://www.w3.org/TR/SVG11/feature#Extensibility"><div xmlns="http://www.w3.org/1999/xhtml" style="display: inline-block; font-size: 8px; font-family: Verdana; color: rgb(0, 0, 0); line-height: 1.2; vertical-align: top; width: 30px; white-space: nowrap; word-wrap: normal; text-align: center;"><div xmlns="http://www.w3.org/1999/xhtml" style="display:inline-block;text-align:inherit;text-decoration:inherit;"><div style="text-align: center"><span>MODEL</span></div></div></div></foreignObject><text x="14" y="8" fill="#000000" text-anchor="middle" font-size="8px" font-family="Verdana">[Not supported by viewer]</text></switch></g><g transform="translate(318.5,52.5)"><switch><foreignObject style="overflow:visible;" pointer-events="all" width="40" height="7" requiredFeatures="http://www.w3.org/TR/SVG11/feature#Extensibility"><div xmlns="http://www.w3.org/1999/xhtml" style="display: inline-block; font-size: 8px; font-family: Verdana; color: rgb(0, 0, 0); line-height: 1.2; vertical-align: top; width: 40px; white-space: nowrap; word-wrap: normal; text-align: center;"><div xmlns="http://www.w3.org/1999/xhtml" style="display:inline-block;text-align:inherit;text-decoration:inherit;"><b>Sonuçlar</b></div></div></foreignObject><text x="20" y="8" fill="#000000" text-anchor="middle" font-size="8px" font-family="Verdana">&lt;b&gt;Sonuçlar&lt;/b&gt;</text></switch></g><rect x="-0.38" y="0" width="370" height="203" fill="none" stroke="#000000" pointer-events="none"/><path d="M 370 102 L 370 102" fill="none" stroke="#000000" stroke-miterlimit="10" pointer-events="none"/><path d="M 370 102 L 370 102 L 370 102 L 370 102 Z" fill="#000000" stroke="#000000" stroke-miterlimit="10" pointer-events="none"/><g transform="translate(299.5,191.5)"><switch><foreignObject style="overflow:visible;" pointer-events="all" width="61" height="7" requiredFeatures="http://www.w3.org/TR/SVG11/feature#Extensibility"><div xmlns="http://www.w3.org/1999/xhtml" style="display: inline-block; font-size: 8px; font-family: Verdana; color: rgb(0, 0, 0); line-height: 1.2; vertical-align: top; width: 61px; white-space: nowrap; word-wrap: normal; text-align: center;"><div xmlns="http://www.w3.org/1999/xhtml" style="display:inline-block;text-align:inherit;text-decoration:inherit;"><b>berkarat.com</b></div></div></foreignObject><text x="31" y="8" fill="#000000" text-anchor="middle" font-size="8px" font-family="Verdana">&lt;b&gt;berkarat.com&lt;/b&gt;</text></switch></g><path d="M 128.29 122.29 L 10 122.29" fill="none" stroke="#000000" stroke-miterlimit="10" stroke-dasharray="3 3" pointer-events="none"/><g transform="translate(46.5,128.5)"><switch><foreignObject style="overflow:visible;" pointer-events="all" width="45" height="7" requiredFeatures="http://www.w3.org/TR/SVG11/feature#Extensibility"><div xmlns="http://www.w3.org/1999/xhtml" style="display: inline-block; font-size: 8px; font-family: Verdana; color: rgb(0, 0, 0); line-height: 1.2; vertical-align: top; width: 45px; white-space: nowrap; word-wrap: normal; text-align: center;"><div xmlns="http://www.w3.org/1999/xhtml" style="display:inline-block;text-align:inherit;text-decoration:inherit;">Doğrulama</div></div></foreignObject><text x="23" y="8" fill="#000000" text-anchor="middle" font-size="8px" font-family="Verdana">Doğrulama</text></switch></g><path d="M 164 132 L 268 132 L 268 77.37" fill="none" stroke="#000000" stroke-miterlimit="10" pointer-events="none"/><path d="M 268 72.12 L 271.5 79.12 L 268 77.37 L 264.5 79.12 Z" fill="#000000" stroke="#000000" stroke-miterlimit="10" pointer-events="none"/><path d="M 168 127 L 158 127 Q 148 127 148 129.5 L 148 130.75 Q 148 132 138 132 L 133 132 Q 128 132 138 132 L 143 132 Q 148 132 148 134.5 L 148 135.75 Q 148 137 158 137 L 168 137" fill="none" stroke="#000000" stroke-miterlimit="10" transform="rotate(180,148,132)" pointer-events="none"/><path d="M 195 38.75 C 183 38.75 180 53.5 189.6 56.45 C 180 62.94 190.8 77.1 198.6 71.2 C 204 83 222 83 228 71.2 C 240 71.2 240 59.4 232.5 53.5 C 240 41.7 228 29.9 217.5 35.8 C 210 26.95 198 26.95 195 38.75 Z" fill="none" stroke="#00ffff" stroke-miterlimit="10" pointer-events="none"/><path d="M 193.75 34.75 C 180.35 34.75 177 53.5 187.72 57.25 C 177 65.5 189.06 83.5 197.77 76 C 203.8 91 223.9 91 230.6 76 C 244 76 244 61 235.63 53.5 C 244 38.5 230.6 23.5 218.88 31 C 210.5 19.75 197.1 19.75 193.75 34.75 Z" fill="none" stroke="#80ff00" stroke-miterlimit="10" pointer-events="none"/></g></svg>